<svg width="45" height="44" viewBox="0 0 45 44" fill="none" xmlns="http://www.w3.org/2000/svg">
<g id="ph:file-html-thin">
<rect width="45" height="44" rx="10" fill="#1BFF07"/>
<g id="Vector">
<mask id="path-2-outside-1_101_266" maskUnits="userSpaceOnUse" x="10" y="11" width="26" height="24" fill="black">
<rect fill="white" x="10" y="11" width="26" height="24"/>
<path d="M21.6154 29.0771C21.6154 29.1995 21.5668 29.3169 21.4802 29.4035C21.3936 29.4901 21.2763 29.5387 21.1538 29.5387H19.7692V33.6925C19.7692 33.8149 19.7206 33.9323 19.6341 34.0189C19.5475 34.1054 19.4301 34.1541 19.3077 34.1541C19.1853 34.1541 19.0679 34.1054 18.9813 34.0189C18.8948 33.9323 18.8462 33.8149 18.8462 33.6925V29.5387H17.4615C17.3391 29.5387 17.2217 29.4901 17.1352 29.4035C17.0486 29.3169 17 29.1995 17 29.0771C17 28.9547 17.0486 28.8373 17.1352 28.7508C17.2217 28.6642 17.3391 28.6156 17.4615 28.6156H21.1538C21.2763 28.6156 21.3936 28.6642 21.4802 28.7508C21.5668 28.8373 21.6154 28.9547 21.6154 29.0771ZM14.6923 28.6156C14.5699 28.6156 14.4525 28.6642 14.366 28.7508C14.2794 28.8373 14.2308 28.9547 14.2308 29.0771V30.9233H11.9231V29.0771C11.9231 28.9547 11.8745 28.8373 11.7879 28.7508C11.7013 28.6642 11.5839 28.6156 11.4615 28.6156C11.3391 28.6156 11.2217 28.6642 11.1352 28.7508C11.0486 28.8373 11 28.9547 11 29.0771V33.6925C11 33.8149 11.0486 33.9323 11.1352 34.0189C11.2217 34.1054 11.3391 34.1541 11.4615 34.1541C11.5839 34.1541 11.7013 34.1054 11.7879 34.0189C11.8745 33.9323 11.9231 33.8149 11.9231 33.6925V31.8464H14.2308V33.6925C14.2308 33.8149 14.2794 33.9323 14.366 34.0189C14.4525 34.1054 14.5699 34.1541 14.6923 34.1541C14.8147 34.1541 14.9321 34.1054 15.0187 34.0189C15.1052 33.9323 15.1538 33.8149 15.1538 33.6925V29.0771C15.1538 28.9547 15.1052 28.8373 15.0187 28.7508C14.9321 28.6642 14.8147 28.6156 14.6923 28.6156ZM34.5385 33.231H32.2308V29.0771C32.2308 28.9547 32.1821 28.8373 32.0956 28.7508C32.009 28.6642 31.8916 28.6156 31.7692 28.6156C31.6468 28.6156 31.5294 28.6642 31.4429 28.7508C31.3563 28.8373 31.3077 28.9547 31.3077 29.0771V33.6925C31.3077 33.8149 31.3563 33.9323 31.4429 34.0189C31.5294 34.1054 31.6468 34.1541 31.7692 34.1541H34.5385C34.6609 34.1541 34.7783 34.1054 34.8648 34.0189C34.9514 33.9323 35 33.8149 35 33.6925C35 33.5701 34.9514 33.4527 34.8648 33.3662C34.7783 33.2796 34.6609 33.231 34.5385 33.231ZM28.6769 28.6387C28.583 28.6118 28.4832 28.614 28.3905 28.6449C28.2979 28.6758 28.2167 28.7339 28.1577 28.8118L26.2308 31.5118L24.3038 28.8118C24.2448 28.7339 24.1637 28.6758 24.071 28.6449C23.9783 28.614 23.8785 28.6118 23.7846 28.6387C23.6912 28.668 23.6096 28.7264 23.5515 28.8052C23.4934 28.884 23.4619 28.9792 23.4615 29.0771V33.6925C23.4615 33.8149 23.5102 33.9323 23.5967 34.0189C23.6833 34.1054 23.8007 34.1541 23.9231 34.1541C24.0455 34.1541 24.1629 34.1054 24.2494 34.0189C24.336 33.9323 24.3846 33.8149 24.3846 33.6925V30.5194L25.85 32.5733C25.894 32.6329 25.9513 32.6814 26.0175 32.7148C26.0836 32.7482 26.1567 32.7656 26.2308 32.7656C26.3049 32.7656 26.3779 32.7482 26.4441 32.7148C26.5102 32.6814 26.5676 32.6329 26.6115 32.5733L28.0769 30.5194V33.6925C28.0769 33.8149 28.1255 33.9323 28.2121 34.0189C28.2987 34.1054 28.4161 34.1541 28.5385 34.1541C28.6609 34.1541 28.7783 34.1054 28.8648 34.0189C28.9514 33.9323 29 33.8149 29 33.6925V29.0771C28.9996 28.9792 28.9681 28.884 28.91 28.8052C28.852 28.7264 28.7703 28.668 28.6769 28.6387ZM31.3077 24.9233C31.1853 24.9233 31.0679 24.8747 30.9813 24.7881C30.8948 24.7016 30.8462 24.5842 30.8462 24.4618V19.3848H24.8462C24.7237 19.3848 24.6064 19.3362 24.5198 19.2496C24.4332 19.1631 24.3846 19.0457 24.3846 18.9233V12.9233H13.7692C13.6468 12.9233 13.5294 12.9719 13.4429 13.0585C13.3563 13.145 13.3077 13.2624 13.3077 13.3848V24.4618C13.3077 24.5842 13.2591 24.7016 13.1725 24.7881C13.086 24.8747 12.9686 24.9233 12.8462 24.9233C12.7237 24.9233 12.6064 24.8747 12.5198 24.7881C12.4332 24.7016 12.3846 24.5842 12.3846 24.4618V13.3848C12.3846 13.0176 12.5305 12.6654 12.7902 12.4058C13.0498 12.1461 13.402 12.0002 13.7692 12.0002H24.8462C24.9069 11.9983 24.9672 12.0097 25.0231 12.0336C25.0789 12.0575 25.1288 12.0934 25.1692 12.1387L31.6308 18.5887C31.7156 18.68 31.7647 18.7987 31.7692 18.9233V24.4618C31.7692 24.5842 31.7206 24.7016 31.634 24.7881C31.5475 24.8747 31.4301 24.9233 31.3077 24.9233ZM25.3077 18.4618H30.1885L25.3077 13.581V18.4618Z"/>
</mask>
<path d="M21.6154 29.0771C21.6154 29.1995 21.5668 29.3169 21.4802 29.4035C21.3936 29.4901 21.2763 29.5387 21.1538 29.5387H19.7692V33.6925C19.7692 33.8149 19.7206 33.9323 19.6341 34.0189C19.5475 34.1054 19.4301 34.1541 19.3077 34.1541C19.1853 34.1541 19.0679 34.1054 18.9813 34.0189C18.8948 33.9323 18.8462 33.8149 18.8462 33.6925V29.5387H17.4615C17.3391 29.5387 17.2217 29.4901 17.1352 29.4035C17.0486 29.3169 17 29.1995 17 29.0771C17 28.9547 17.0486 28.8373 17.1352 28.7508C17.2217 28.6642 17.3391 28.6156 17.4615 28.6156H21.1538C21.2763 28.6156 21.3936 28.6642 21.4802 28.7508C21.5668 28.8373 21.6154 28.9547 21.6154 29.0771ZM14.6923 28.6156C14.5699 28.6156 14.4525 28.6642 14.366 28.7508C14.2794 28.8373 14.2308 28.9547 14.2308 29.0771V30.9233H11.9231V29.0771C11.9231 28.9547 11.8745 28.8373 11.7879 28.7508C11.7013 28.6642 11.5839 28.6156 11.4615 28.6156C11.3391 28.6156 11.2217 28.6642 11.1352 28.7508C11.0486 28.8373 11 28.9547 11 29.0771V33.6925C11 33.8149 11.0486 33.9323 11.1352 34.0189C11.2217 34.1054 11.3391 34.1541 11.4615 34.1541C11.5839 34.1541 11.7013 34.1054 11.7879 34.0189C11.8745 33.9323 11.9231 33.8149 11.9231 33.6925V31.8464H14.2308V33.6925C14.2308 33.8149 14.2794 33.9323 14.366 34.0189C14.4525 34.1054 14.5699 34.1541 14.6923 34.1541C14.8147 34.1541 14.9321 34.1054 15.0187 34.0189C15.1052 33.9323 15.1538 33.8149 15.1538 33.6925V29.0771C15.1538 28.9547 15.1052 28.8373 15.0187 28.7508C14.9321 28.6642 14.8147 28.6156 14.6923 28.6156ZM34.5385 33.231H32.2308V29.0771C32.2308 28.9547 32.1821 28.8373 32.0956 28.7508C32.009 28.6642 31.8916 28.6156 31.7692 28.6156C31.6468 28.6156 31.5294 28.6642 31.4429 28.7508C31.3563 28.8373 31.3077 28.9547 31.3077 29.0771V33.6925C31.3077 33.8149 31.3563 33.9323 31.4429 34.0189C31.5294 34.1054 31.6468 34.1541 31.7692 34.1541H34.5385C34.6609 34.1541 34.7783 34.1054 34.8648 34.0189C34.9514 33.9323 35 33.8149 35 33.6925C35 33.5701 34.9514 33.4527 34.8648 33.3662C34.7783 33.2796 34.6609 33.231 34.5385 33.231ZM28.6769 28.6387C28.583 28.6118 28.4832 28.614 28.3905 28.6449C28.2979 28.6758 28.2167 28.7339 28.1577 28.8118L26.2308 31.5118L24.3038 28.8118C24.2448 28.7339 24.1637 28.6758 24.071 28.6449C23.9783 28.614 23.8785 28.6118 23.7846 28.6387C23.6912 28.668 23.6096 28.7264 23.5515 28.8052C23.4934 28.884 23.4619 28.9792 23.4615 29.0771V33.6925C23.4615 33.8149 23.5102 33.9323 23.5967 34.0189C23.6833 34.1054 23.8007 34.1541 23.9231 34.1541C24.0455 34.1541 24.1629 34.1054 24.2494 34.0189C24.336 33.9323 24.3846 33.8149 24.3846 33.6925V30.5194L25.85 32.5733C25.894 32.6329 25.9513 32.6814 26.0175 32.7148C26.0836 32.7482 26.1567 32.7656 26.2308 32.7656C26.3049 32.7656 26.3779 32.7482 26.4441 32.7148C26.5102 32.6814 26.5676 32.6329 26.6115 32.5733L28.0769 30.5194V33.6925C28.0769 33.8149 28.1255 33.9323 28.2121 34.0189C28.2987 34.1054 28.4161 34.1541 28.5385 34.1541C28.6609 34.1541 28.7783 34.1054 28.8648 34.0189C28.9514 33.9323 29 33.8149 29 33.6925V29.0771C28.9996 28.9792 28.9681 28.884 28.91 28.8052C28.852 28.7264 28.7703 28.668 28.6769 28.6387ZM31.3077 24.9233C31.1853 24.9233 31.0679 24.8747 30.9813 24.7881C30.8948 24.7016 30.8462 24.5842 30.8462 24.4618V19.3848H24.8462C24.7237 19.3848 24.6064 19.3362 24.5198 19.2496C24.4332 19.1631 24.3846 19.0457 24.3846 18.9233V12.9233H13.7692C13.6468 12.9233 13.5294 12.9719 13.4429 13.0585C13.3563 13.145 13.3077 13.2624 13.3077 13.3848V24.4618C13.3077 24.5842 13.2591 24.7016 13.1725 24.7881C13.086 24.8747 12.9686 24.9233 12.8462 24.9233C12.7237 24.9233 12.6064 24.8747 12.5198 24.7881C12.4332 24.7016 12.3846 24.5842 12.3846 24.4618V13.3848C12.3846 13.0176 12.5305 12.6654 12.7902 12.4058C13.0498 12.1461 13.402 12.0002 13.7692 12.0002H24.8462C24.9069 11.9983 24.9672 12.0097 25.0231 12.0336C25.0789 12.0575 25.1288 12.0934 25.1692 12.1387L31.6308 18.5887C31.7156 18.68 31.7647 18.7987 31.7692 18.9233V24.4618C31.7692 24.5842 31.7206 24.7016 31.634 24.7881C31.5475 24.8747 31.4301 24.9233 31.3077 24.9233ZM25.3077 18.4618H30.1885L25.3077 13.581V18.4618Z" fill="white"/>
<path d="M21.6154 29.0771C21.6154 29.1995 21.5668 29.3169 21.4802 29.4035C21.3936 29.4901 21.2763 29.5387 21.1538 29.5387H19.7692V33.6925C19.7692 33.8149 19.7206 33.9323 19.6341 34.0189C19.5475 34.1054 19.4301 34.1541 19.3077 34.1541C19.1853 34.1541 19.0679 34.1054 18.9813 34.0189C18.8948 33.9323 18.8462 33.8149 18.8462 33.6925V29.5387H17.4615C17.3391 29.5387 17.2217 29.4901 17.1352 29.4035C17.0486 29.3169 17 29.1995 17 29.0771C17 28.9547 17.0486 28.8373 17.1352 28.7508C17.2217 28.6642 17.3391 28.6156 17.4615 28.6156H21.1538C21.2763 28.6156 21.3936 28.6642 21.4802 28.7508C21.5668 28.8373 21.6154 28.9547 21.6154 29.0771ZM14.6923 28.6156C14.5699 28.6156 14.4525 28.6642 14.366 28.7508C14.2794 28.8373 14.2308 28.9547 14.2308 29.0771V30.9233H11.9231V29.0771C11.9231 28.9547 11.8745 28.8373 11.7879 28.7508C11.7013 28.6642 11.5839 28.6156 11.4615 28.6156C11.3391 28.6156 11.2217 28.6642 11.1352 28.7508C11.0486 28.8373 11 28.9547 11 29.0771V33.6925C11 33.8149 11.0486 33.9323 11.1352 34.0189C11.2217 34.1054 11.3391 34.1541 11.4615 34.1541C11.5839 34.1541 11.7013 34.1054 11.7879 34.0189C11.8745 33.9323 11.9231 33.8149 11.9231 33.6925V31.8464H14.2308V33.6925C14.2308 33.8149 14.2794 33.9323 14.366 34.0189C14.4525 34.1054 14.5699 34.1541 14.6923 34.1541C14.8147 34.1541 14.9321 34.1054 15.0187 34.0189C15.1052 33.9323 15.1538 33.8149 15.1538 33.6925V29.0771C15.1538 28.9547 15.1052 28.8373 15.0187 28.7508C14.9321 28.6642 14.8147 28.6156 14.6923 28.6156ZM34.5385 33.231H32.2308V29.0771C32.2308 28.9547 32.1821 28.8373 32.0956 28.7508C32.009 28.6642 31.8916 28.6156 31.7692 28.6156C31.6468 28.6156 31.5294 28.6642 31.4429 28.7508C31.3563 28.8373 31.3077 28.9547 31.3077 29.0771V33.6925C31.3077 33.8149 31.3563 33.9323 31.4429 34.0189C31.5294 34.1054 31.6468 34.1541 31.7692 34.1541H34.5385C34.6609 34.1541 34.7783 34.1054 34.8648 34.0189C34.9514 33.9323 35 33.8149 35 33.6925C35 33.5701 34.9514 33.4527 34.8648 33.3662C34.7783 33.2796 34.6609 33.231 34.5385 33.231ZM28.6769 28.6387C28.583 28.6118 28.4832 28.614 28.3905 28.6449C28.2979 28.6758 28.2167 28.7339 28.1577 28.8118L26.2308 31.5118L24.3038 28.8118C24.2448 28.7339 24.1637 28.6758 24.071 28.6449C23.9783 28.614 23.8785 28.6118 23.7846 28.6387C23.6912 28.668 23.6096 28.7264 23.5515 28.8052C23.4934 28.884 23.4619 28.9792 23.4615 29.0771V33.6925C23.4615 33.8149 23.5102 33.9323 23.5967 34.0189C23.6833 34.1054 23.8007 34.1541 23.9231 34.1541C24.0455 34.1541 24.1629 34.1054 24.2494 34.0189C24.336 33.9323 24.3846 33.8149 24.3846 33.6925V30.5194L25.85 32.5733C25.894 32.6329 25.9513 32.6814 26.0175 32.7148C26.0836 32.7482 26.1567 32.7656 26.2308 32.7656C26.3049 32.7656 26.3779 32.7482 26.4441 32.7148C26.5102 32.6814 26.5676 32.6329 26.6115 32.5733L28.0769 30.5194V33.6925C28.0769 33.8149 28.1255 33.9323 28.2121 34.0189C28.2987 34.1054 28.4161 34.1541 28.5385 34.1541C28.6609 34.1541 28.7783 34.1054 28.8648 34.0189C28.9514 33.9323 29 33.8149 29 33.6925V29.0771C28.9996 28.9792 28.9681 28.884 28.91 28.8052C28.852 28.7264 28.7703 28.668 28.6769 28.6387ZM31.3077 24.9233C31.1853 24.9233 31.0679 24.8747 30.9813 24.7881C30.8948 24.7016 30.8462 24.5842 30.8462 24.4618V19.3848H24.8462C24.7237 19.3848 24.6064 19.3362 24.5198 19.2496C24.4332 19.1631 24.3846 19.0457 24.3846 18.9233V12.9233H13.7692C13.6468 12.9233 13.5294 12.9719 13.4429 13.0585C13.3563 13.145 13.3077 13.2624 13.3077 13.3848V24.4618C13.3077 24.5842 13.2591 24.7016 13.1725 24.7881C13.086 24.8747 12.9686 24.9233 12.8462 24.9233C12.7237 24.9233 12.6064 24.8747 12.5198 24.7881C12.4332 24.7016 12.3846 24.5842 12.3846 24.4618V13.3848C12.3846 13.0176 12.5305 12.6654 12.7902 12.4058C13.0498 12.1461 13.402 12.0002 13.7692 12.0002H24.8462C24.9069 11.9983 24.9672 12.0097 25.0231 12.0336C25.0789 12.0575 25.1288 12.0934 25.1692 12.1387L31.6308 18.5887C31.7156 18.68 31.7647 18.7987 31.7692 18.9233V24.4618C31.7692 24.5842 31.7206 24.7016 31.634 24.7881C31.5475 24.8747 31.4301 24.9233 31.3077 24.9233ZM25.3077 18.4618H30.1885L25.3077 13.581V18.4618Z" stroke="white" stroke-width="0.4" mask="url(#path-2-outside-1_101_266)"/>
</g>
</g>
</svg>
