<svg width="45" height="44" viewBox="0 0 45 44" fill="none" xmlns="http://www.w3.org/2000/svg">
<g id="ph:file-html-thin">
<rect width="45" height="44" rx="10" fill="#1BFF07"/>
<path id="Vector" d="M15.5 13C15.5 12.2044 15.8161 11.4413 16.3787 10.8787C16.9413 10.3161 17.7044 10 18.5 10H25.379C25.9755 10.0005 26.5474 10.2379 26.969 10.66L32.8415 16.531C33.263 16.9528 33.4999 17.5247 33.5 18.121V31C33.5 31.7956 33.1839 32.5587 32.6213 33.1213C32.0587 33.6839 31.2956 34 30.5 34H22.25C22.5785 33.565 22.8125 33.055 22.925 32.5H30.5C30.8978 32.5 31.2794 32.342 31.5607 32.0607C31.842 31.7794 32 31.3978 32 31V19H26.75C26.1533 19 25.581 18.7629 25.159 18.341C24.7371 17.919 24.5 17.3467 24.5 16.75V11.5H18.5C18.1022 11.5 17.7206 11.658 17.4393 11.9393C17.158 12.2206 17 12.6022 17 13V24.25C16.8785 24.3415 16.76 24.4405 16.652 24.547C16.3818 24.1202 15.9761 23.7964 15.5 23.6275V13ZM26.75 17.5H31.6895L26 11.8105V16.75C26 16.9489 26.079 17.1397 26.2197 17.2803C26.3603 17.421 26.5511 17.5 26.75 17.5ZM14.75 25C14.5511 25 14.3603 25.079 14.2197 25.2197C14.079 25.3603 14 25.5511 14 25.75V31.75C14 31.9489 13.921 32.1397 13.7803 32.2803C13.6397 32.421 13.4489 32.5 13.25 32.5C13.0511 32.5 12.8603 32.421 12.7197 32.2803C12.579 32.1397 12.5 31.9489 12.5 31.75V31C12.5 30.8011 12.421 30.6103 12.2803 30.4697C12.1397 30.329 11.9489 30.25 11.75 30.25C11.5511 30.25 11.3603 30.329 11.2197 30.4697C11.079 30.6103 11 30.8011 11 31V31.75C11 32.3467 11.2371 32.919 11.659 33.341C12.081 33.7629 12.6533 34 13.25 34C13.8467 34 14.419 33.7629 14.841 33.341C15.2629 32.919 15.5 32.3467 15.5 31.75V25.75C15.5 25.5511 15.421 25.3603 15.2803 25.2197C15.1397 25.079 14.9489 25 14.75 25ZM17 27.25C17 26.6533 17.2371 26.081 17.659 25.659C18.081 25.2371 18.6533 25 19.25 25C19.8467 25 20.419 25.2371 20.841 25.659C21.2629 26.081 21.5 26.6533 21.5 27.25C21.5 27.4489 21.421 27.6397 21.2803 27.7803C21.1397 27.921 20.9489 28 20.75 28C20.5511 28 20.3603 27.921 20.2197 27.7803C20.079 27.6397 20 27.4489 20 27.25C20 27.0511 19.921 26.8603 19.7803 26.7197C19.6397 26.579 19.4489 26.5 19.25 26.5C19.0511 26.5 18.8603 26.579 18.7197 26.7197C18.579 26.8603 18.5 27.0511 18.5 27.25V27.823C18.5 27.9622 18.5387 28.0986 18.6118 28.217C18.685 28.3354 18.7896 28.4312 18.914 28.4935L20.2565 29.164C20.6303 29.3509 20.9446 29.6383 21.1642 29.9938C21.3839 30.3494 21.5001 30.7591 21.5 31.177V31.75C21.5 32.3467 21.2629 32.919 20.841 33.341C20.419 33.7629 19.8467 34 19.25 34C18.6533 34 18.081 33.7629 17.659 33.341C17.2371 32.919 17 32.3467 17 31.75C17 31.5511 17.079 31.3603 17.2197 31.2197C17.3603 31.079 17.5511 31 17.75 31C17.9489 31 18.1397 31.079 18.2803 31.2197C18.421 31.3603 18.5 31.5511 18.5 31.75C18.5 31.9489 18.579 32.1397 18.7197 32.2803C18.8603 32.421 19.0511 32.5 19.25 32.5C19.4489 32.5 19.6397 32.421 19.7803 32.2803C19.921 32.1397 20 31.9489 20 31.75V31.177C20 31.0378 19.9613 30.9014 19.8882 30.783C19.815 30.6646 19.7104 30.5688 19.586 30.5065L18.2435 29.836C17.8697 29.6491 17.5554 29.3617 17.3358 29.0062C17.1161 28.6506 16.9999 28.2409 17 27.823V27.25Z" fill="white"/>
</g>
</svg>
