<svg width="45" height="44" viewBox="0 0 45 44" fill="none" xmlns="http://www.w3.org/2000/svg">
<g id="ph:file-html-thin">
<rect width="45" height="44" rx="10" fill="#1BFF07"/>
<path id="Vector" d="M27.8544 8.9H27.8539L16.3886 8.9L16.3881 8.9C15.7292 8.90327 15.0983 9.16646 14.6324 9.63236C14.1665 10.0983 13.9033 10.7292 13.9 11.3881V11.3886L13.9 32.4083L13.9 32.4088C13.9033 33.0676 14.1665 33.6986 14.6324 34.1645C15.0983 34.6304 15.7292 34.8936 16.3881 34.8969H16.3886H27.8539L27.8544 34.8969C28.5133 34.8936 29.1442 34.6304 29.6101 34.1645C30.076 33.6986 30.3392 33.0676 30.3425 32.4088V32.4083V11.3886L30.3425 11.3881C30.3392 10.7292 30.076 10.0983 29.6101 9.63236C29.1442 9.16646 28.5133 8.90327 27.8544 8.9ZM15.0554 13.8772H29.187V29.9197H15.0554V13.8772ZM16.3886 10.0554H27.8539C28.2075 10.0554 28.5465 10.1959 28.7966 10.4459C29.0466 10.6959 29.187 11.035 29.187 11.3886V12.7218H15.0554V11.3886C15.0554 11.035 15.1959 10.6959 15.4459 10.4459C15.6959 10.1959 16.035 10.0554 16.3886 10.0554ZM27.8539 33.7414H16.3886C16.035 33.7414 15.6959 33.601 15.4459 33.351C15.1959 33.1009 15.0554 32.7619 15.0554 32.4083V31.0751H29.187V32.4083C29.187 32.7619 29.0466 33.1009 28.7966 33.351C28.5465 33.601 28.2075 33.7414 27.8539 33.7414Z" fill="white" stroke="white" stroke-width="0.2"/>
</g>
</svg>
