<svg width="45" height="44" viewBox="0 0 45 44" fill="none" xmlns="http://www.w3.org/2000/svg">
<g id="ph:file-html-thin">
<rect width="45" height="44" rx="10" fill="#1BFF07"/>
<path id="Vector" d="M22.66 34.1674C20.3915 34.1674 18.3676 32.1298 17.0907 28.6388C16.9956 28.3671 17.1314 28.0547 17.4167 27.9732C17.6884 27.8645 17.9872 28.014 18.0823 28.2856C19.1826 31.3148 20.8941 33.1214 22.66 33.1214C23.9369 33.1214 25.2001 32.1977 26.2189 30.5134C26.2928 30.3983 26.4086 30.3165 26.5419 30.2856C26.6751 30.2548 26.8151 30.2771 26.9321 30.348C27.049 30.4189 27.1336 30.5327 27.1679 30.6651C27.2022 30.7975 27.1833 30.938 27.1154 31.0567C25.8929 33.0671 24.3172 34.1674 22.66 34.1674ZM27.9712 28.3536C27.9203 28.3523 27.8699 28.3432 27.8218 28.3264C27.5365 28.2313 27.4143 27.9461 27.4686 27.6608C28.0935 25.7591 28.3923 23.5449 28.3923 21.2629C28.3923 16.0332 26.6944 11.4011 24.2765 9.90691C23.9369 10.3959 23.3392 10.7763 22.66 10.7763C21.6276 10.7763 20.7719 9.93408 20.7719 8.88813C20.7719 7.84219 21.6276 7 22.66 7C23.7059 7 24.5617 7.8286 24.5753 8.86097C27.455 10.3959 29.4518 15.4355 29.4518 21.2629C29.4518 23.64 29.1123 25.9628 28.4738 27.9868C28.4059 28.2041 28.2021 28.3536 27.9712 28.3536ZM22.66 8.04594C22.1982 8.04594 21.8178 8.42629 21.8178 8.88813C21.8178 9.34998 22.2117 9.71674 22.66 9.71674C23.1354 9.71674 23.5294 9.34998 23.5294 8.88813C23.5294 8.42629 23.1354 8.04594 22.66 8.04594ZM11.9017 29.4674C10.8558 29.4674 10 28.6117 10 27.5793C10 26.9137 10.3532 26.316 10.8829 25.9764C10.6928 22.7027 14.0751 18.4239 19.2641 15.4491C21.4239 14.2265 23.6788 13.3436 25.8114 12.8953C26.0559 12.8274 26.3683 13.004 26.4227 13.2892C26.4906 13.5745 26.314 13.8598 26.0559 13.9141C24.0184 14.3488 21.8586 15.191 19.8074 16.3592C15.1346 19.0352 11.9289 22.8658 11.9289 25.6912C12.9612 25.7047 13.8306 26.5469 13.8306 27.5793C13.8306 28.6252 12.9477 29.4674 11.9017 29.4674ZM11.9017 26.7371C11.4399 26.7371 11.0595 27.1174 11.0595 27.5793C11.0595 28.0547 11.4399 28.4215 11.9017 28.4215C12.3636 28.4215 12.7575 28.0547 12.7575 27.5793C12.7575 27.1174 12.3636 26.7371 11.9017 26.7371ZM31.4894 22.5397C31.3943 22.5397 31.2721 22.499 31.177 22.4175C31.0717 22.325 31.0069 22.1948 30.9968 22.0551C30.9866 21.9153 31.0318 21.7771 31.1226 21.6704C33.2145 19.2253 33.9345 16.8618 33.0379 15.3404C32.3995 14.2401 30.9461 13.6288 28.9492 13.6017C28.6504 13.6017 28.4195 13.3572 28.4331 13.0719C28.4331 12.7867 28.6776 12.5693 28.9628 12.5557C31.34 12.5829 33.1194 13.3843 33.948 14.8106C35.0891 16.7667 34.342 19.5106 31.9241 22.3496C31.8154 22.4718 31.666 22.5397 31.4894 22.5397ZM28.7727 29.9564C26.0559 29.9564 22.5785 28.9512 19.2641 27.0631C17.1586 25.8542 15.2841 24.3735 13.8306 22.7978C13.7357 22.6966 13.6828 22.563 13.6828 22.4243C13.6828 22.2855 13.7357 22.1519 13.8306 22.0507C14.0751 21.8606 14.4011 21.8741 14.6049 22.0915C15.9768 23.5857 17.7699 24.9984 19.7938 26.153C24.29 28.7339 29.1394 29.5897 31.6932 28.3536C31.5845 28.1226 31.4894 27.851 31.4894 27.5793C31.4894 26.5333 32.3723 25.6912 33.4183 25.6912C34.4642 25.6912 35.32 26.5333 35.32 27.5793C35.3188 27.9192 35.2263 28.2525 35.0522 28.5443C34.878 28.8362 34.6287 29.0759 34.3301 29.2383C34.0316 29.4008 33.6949 29.48 33.3553 29.4677C33.0156 29.4555 32.6855 29.3521 32.3995 29.1686C31.4486 29.6983 30.2125 29.9564 28.7727 29.9564ZM32.8478 28.2313C33.0244 28.34 33.2145 28.4215 33.4183 28.4215C33.6416 28.4215 33.8559 28.3328 34.0138 28.1748C34.1717 28.0169 34.2605 27.8027 34.2605 27.5793C34.2605 27.3559 34.1717 27.1417 34.0138 26.9838C33.8559 26.8258 33.6416 26.7371 33.4183 26.7371C32.9429 26.7371 32.5761 27.1174 32.5761 27.5793C32.5761 27.7695 32.644 27.9461 32.7527 28.0955C32.807 28.1226 32.8478 28.177 32.8478 28.2313ZM12.4179 20.5837C12.2413 20.5837 12.0647 20.475 11.9696 20.312C10.7471 18.2065 10.5433 16.2505 11.3855 14.797C12.5266 12.841 15.2976 12.1075 19.006 12.7731C19.2641 12.8274 19.4814 13.1127 19.4271 13.3843C19.3863 13.6696 19.1147 13.8598 18.8294 13.7918C15.6236 13.2349 13.1514 13.7918 12.2956 15.3268C11.6436 16.4407 11.8474 18.0164 12.8797 19.7823C13.0156 20.0403 12.9341 20.3528 12.676 20.5022C12.5945 20.5429 12.513 20.5837 12.4179 20.5837ZM22.9453 22.4854C22.621 22.5575 22.2814 22.4978 22.0012 22.3194C21.721 22.1411 21.5231 21.8588 21.4511 21.5345C21.379 21.2103 21.4387 20.8707 21.617 20.5905C21.7953 20.3103 22.0777 20.1124 22.4019 20.0403C23.0811 19.9045 23.7603 20.3256 23.8961 21.0048C24.0184 21.6704 23.6109 22.336 22.9453 22.4854Z" fill="white"/>
</g>
</svg>
